<svg xmlns="http://www.w3.org/2000/svg" xmlns:xlink="http://www.w3.org/1999/xlink" width="1381" zoomAndPan="magnify" viewBox="0 0 1035.75 1035.749952" height="1381" preserveAspectRatio="xMidYMid meet" version="1.0"><defs><clipPath id="1b4340b45c"><path d="M 0 0 L 1034.75 0 L 1034.75 1034.75 L 0 1034.75 Z M 0 0 " clip-rule="nonzero"/></clipPath><clipPath id="efe4ba2eb0"><path d="M 55.355469 58 L 979.46875 58 L 979.46875 981.421875 L 55.355469 981.421875 Z M 55.355469 58 " clip-rule="nonzero"/></clipPath><clipPath id="5e9fe7bd56"><path d="M 718.695312 710.558594 C 718.695312 728.378906 704.253906 742.863281 686.390625 742.863281 C 668.527344 742.863281 654.085938 728.425781 654.085938 710.558594 L 654.085938 657.753906 L 718.695312 657.753906 Z M 380.800781 710.558594 C 380.800781 728.378906 366.359375 742.863281 348.496094 742.863281 C 330.632812 742.863281 316.191406 728.425781 316.191406 710.558594 L 316.191406 657.753906 L 380.753906 657.753906 Z M 549.726562 58.835938 L 549.726562 297.367188 C 726.886719 313.890625 867.535156 464.761719 867.535156 645.953125 L 167.308594 645.953125 C 167.308594 464.761719 307.953125 313.890625 485.117188 297.367188 L 485.117188 58.835938 C 245.246094 75.449219 55.773438 275.289062 55.773438 519.375 C 55.773438 774.335938 262.460938 981.023438 517.421875 981.023438 C 772.378906 981.023438 979.070312 774.335938 979.070312 519.375 C 979.070312 275.289062 789.597656 75.449219 549.726562 58.835938 " clip-rule="nonzero"/></clipPath><clipPath id="dc1748318b"><path d="M 167 57.308594 L 868 57.308594 L 868 646 L 167 646 Z M 167 57.308594 " clip-rule="nonzero"/></clipPath><clipPath id="0e92d1e9f5"><path d="M 718.695312 551.402344 L 316.148438 551.402344 C 316.148438 440.976562 406.996094 350.125 517.421875 350.125 C 627.847656 350.125 718.695312 440.976562 718.695312 551.402344 M 687.59375 627.53125 C 670.425781 627.53125 656.539062 613.601562 656.539062 596.433594 C 656.539062 579.261719 670.472656 565.378906 687.59375 565.378906 C 704.71875 565.378906 718.695312 579.308594 718.695312 596.433594 C 718.695312 613.554688 704.765625 627.53125 687.59375 627.53125 M 347.246094 627.53125 C 330.078125 627.53125 316.191406 613.601562 316.191406 596.433594 C 316.191406 579.261719 330.125 565.378906 347.246094 565.378906 C 364.371094 565.378906 378.347656 579.308594 378.347656 596.433594 C 378.347656 613.554688 364.417969 627.53125 347.246094 627.53125 M 167.308594 645.953125 L 867.535156 645.953125 C 867.535156 464.761719 726.886719 313.890625 549.726562 297.367188 L 549.726562 57.726562 L 485.117188 57.726562 L 485.117188 297.367188 C 307.953125 313.890625 167.308594 464.761719 167.308594 645.953125 " clip-rule="nonzero"/></clipPath><clipPath id="392e8d11a5"><path d="M 316 350 L 719 350 L 719 552 L 316 552 Z M 316 350 " clip-rule="nonzero"/></clipPath><clipPath id="dba8ab20de"><path d="M 316.148438 551.402344 L 718.648438 551.402344 C 718.648438 440.976562 627.800781 350.125 517.375 350.125 C 406.949219 350.125 316.148438 440.976562 316.148438 551.402344 " clip-rule="nonzero"/></clipPath><clipPath id="097d2541e4"><path d="M 316 657 L 381 657 L 381 743 L 316 743 Z M 316 657 " clip-rule="nonzero"/></clipPath><clipPath id="fccf62aea6"><path d="M 316.148438 710.558594 C 316.148438 728.378906 330.585938 742.863281 348.449219 742.863281 C 366.316406 742.863281 380.753906 728.425781 380.753906 710.558594 L 380.753906 657.753906 L 316.148438 657.753906 Z M 316.148438 710.558594 " clip-rule="nonzero"/></clipPath><clipPath id="01df0bc1d2"><path d="M 654 657 L 719 657 L 719 743 L 654 743 Z M 654 657 " clip-rule="nonzero"/></clipPath><clipPath id="86b879c2f7"><path d="M 654.085938 710.558594 C 654.085938 728.378906 668.527344 742.863281 686.390625 742.863281 C 704.253906 742.863281 718.695312 728.425781 718.695312 710.558594 L 718.695312 657.753906 L 654.085938 657.753906 Z M 654.085938 710.558594 " clip-rule="nonzero"/></clipPath><clipPath id="8798c5ec9e"><path d="M 316 565 L 379 565 L 379 628 L 316 628 Z M 316 565 " clip-rule="nonzero"/></clipPath><clipPath id="1d6a1d519d"><path d="M 347.246094 565.378906 C 330.078125 565.378906 316.148438 579.308594 316.148438 596.476562 C 316.148438 613.648438 330.078125 627.53125 347.246094 627.53125 C 364.417969 627.53125 378.347656 613.601562 378.347656 596.476562 C 378.347656 579.355469 364.417969 565.378906 347.246094 565.378906 " clip-rule="nonzero"/></clipPath><clipPath id="eec5cca57c"><path d="M 656 565 L 719 565 L 719 628 L 656 628 Z M 656 565 " clip-rule="nonzero"/></clipPath><clipPath id="0a4661de3e"><path d="M 687.59375 565.378906 C 670.425781 565.378906 656.496094 579.308594 656.496094 596.476562 C 656.496094 613.648438 670.425781 627.53125 687.59375 627.53125 C 704.765625 627.53125 718.695312 613.601562 718.695312 596.476562 C 718.695312 579.355469 704.765625 565.378906 687.59375 565.378906 " clip-rule="nonzero"/></clipPath></defs><g clip-path="url(#1b4340b45c)"><path fill="#06a77d" d="M 517.410156 0 C 231.933594 0 0 231.933594 0 517.410156 C 0 802.886719 231.933594 1034.820312 517.410156 1034.820312 C 802.886719 1034.820312 1034.820312 802.886719 1034.820312 517.410156 C 1034.820312 231.933594 802.886719 0 517.410156 0 Z M 517.410156 22.496094 C 791.03125 22.496094 1012.324219 243.789062 1012.324219 517.410156 C 1012.324219 791.03125 791.03125 1012.324219 517.410156 1012.324219 C 243.789062 1012.324219 22.496094 791.03125 22.496094 517.410156 C 22.496094 243.789062 243.789062 22.496094 517.410156 22.496094 Z M 517.410156 22.496094 " fill-opacity="1" fill-rule="nonzero"/></g><g clip-path="url(#efe4ba2eb0)"><g clip-path="url(#5e9fe7bd56)"><path fill="#06a77d" d="M 32.632812 34.585938 L 1002.191406 34.585938 L 1002.191406 1004.144531 L 32.632812 1004.144531 Z M 32.632812 34.585938 " fill-opacity="1" fill-rule="nonzero"/></g></g><g clip-path="url(#dc1748318b)"><g clip-path="url(#0e92d1e9f5)"><path fill="#ffffff" d="M 32.632812 34.585938 L 1002.191406 34.585938 L 1002.191406 1004.144531 L 32.632812 1004.144531 Z M 32.632812 34.585938 " fill-opacity="1" fill-rule="nonzero"/></g></g><g clip-path="url(#392e8d11a5)"><g clip-path="url(#dba8ab20de)"><path fill="#06a77d" d="M 32.632812 34.585938 L 1002.191406 34.585938 L 1002.191406 1004.144531 L 32.632812 1004.144531 Z M 32.632812 34.585938 " fill-opacity="1" fill-rule="nonzero"/></g></g><g clip-path="url(#097d2541e4)"><g clip-path="url(#fccf62aea6)"><path fill="#ffffff" d="M 32.632812 34.585938 L 1002.191406 34.585938 L 1002.191406 1004.144531 L 32.632812 1004.144531 Z M 32.632812 34.585938 " fill-opacity="1" fill-rule="nonzero"/></g></g><g clip-path="url(#01df0bc1d2)"><g clip-path="url(#86b879c2f7)"><path fill="#ffffff" d="M 32.632812 34.585938 L 1002.191406 34.585938 L 1002.191406 1004.144531 L 32.632812 1004.144531 Z M 32.632812 34.585938 " fill-opacity="1" fill-rule="nonzero"/></g></g><g clip-path="url(#8798c5ec9e)"><g clip-path="url(#1d6a1d519d)"><path fill="#06a77d" d="M 32.632812 34.585938 L 1002.191406 34.585938 L 1002.191406 1004.144531 L 32.632812 1004.144531 Z M 32.632812 34.585938 " fill-opacity="1" fill-rule="nonzero"/></g></g><g clip-path="url(#eec5cca57c)"><g clip-path="url(#0a4661de3e)"><path fill="#06a77d" d="M 32.632812 34.585938 L 1002.191406 34.585938 L 1002.191406 1004.144531 L 32.632812 1004.144531 Z M 32.632812 34.585938 " fill-opacity="1" fill-rule="nonzero"/></g></g></svg>