<svg xmlns="http://www.w3.org/2000/svg" xmlns:xlink="http://www.w3.org/1999/xlink" width="4959" zoomAndPan="magnify" viewBox="0 0 3719.25 1200.749942" height="1601" preserveAspectRatio="xMidYMid meet" version="1.0"><defs><g/><clipPath id="eee6d610ae"><path d="M 23 163 L 946.878906 163 L 946.878906 1086 L 23 1086 Z M 23 163 " clip-rule="nonzero"/></clipPath><clipPath id="033098056f"><path d="M 686.097656 815.492188 C 686.097656 833.308594 671.660156 847.796875 653.792969 847.796875 C 635.929688 847.796875 621.488281 833.355469 621.488281 815.492188 L 621.488281 762.683594 L 686.097656 762.683594 Z M 348.191406 815.492188 C 348.191406 833.308594 333.753906 847.796875 315.886719 847.796875 C 298.023438 847.796875 283.582031 833.355469 283.582031 815.492188 L 283.582031 762.683594 L 348.148438 762.683594 Z M 517.121094 163.746094 L 517.121094 402.285156 C 694.289062 418.808594 834.941406 569.6875 834.941406 750.882812 L 134.691406 750.882812 C 134.691406 569.6875 275.34375 418.808594 452.511719 402.285156 L 452.511719 163.746094 C 212.632812 180.363281 23.152344 380.207031 23.152344 624.300781 C 23.152344 879.269531 229.847656 1085.964844 484.816406 1085.964844 C 739.785156 1085.964844 946.480469 879.269531 946.480469 624.300781 C 946.480469 380.207031 757.003906 180.363281 517.121094 163.746094 " clip-rule="nonzero"/></clipPath><clipPath id="2bd3fefc40"><path d="M 134 162.21875 L 835 162.21875 L 835 751 L 134 751 Z M 134 162.21875 " clip-rule="nonzero"/></clipPath><clipPath id="015c990603"><path d="M 686.097656 656.328125 L 283.535156 656.328125 C 283.535156 545.898438 374.386719 455.046875 484.816406 455.046875 C 595.246094 455.046875 686.097656 545.898438 686.097656 656.328125 M 654.996094 732.460938 C 637.828125 732.460938 623.941406 718.53125 623.941406 701.359375 C 623.941406 684.1875 637.871094 670.304688 654.996094 670.304688 C 672.121094 670.304688 686.097656 684.234375 686.097656 701.359375 C 686.097656 718.484375 672.167969 732.460938 654.996094 732.460938 M 314.636719 732.460938 C 297.46875 732.460938 283.582031 718.53125 283.582031 701.359375 C 283.582031 684.1875 297.515625 670.304688 314.636719 670.304688 C 331.761719 670.304688 345.738281 684.234375 345.738281 701.359375 C 345.738281 718.484375 331.808594 732.460938 314.636719 732.460938 M 134.691406 750.882812 L 834.941406 750.882812 C 834.941406 569.6875 694.289062 418.808594 517.121094 402.285156 L 517.121094 162.636719 L 452.511719 162.636719 L 452.511719 402.285156 C 275.34375 418.808594 134.691406 569.6875 134.691406 750.882812 " clip-rule="nonzero"/></clipPath><clipPath id="44f42e7754"><path d="M 283 455 L 687 455 L 687 657 L 283 657 Z M 283 455 " clip-rule="nonzero"/></clipPath><clipPath id="1784dd4fea"><path d="M 283.535156 656.328125 L 686.050781 656.328125 C 686.050781 545.898438 595.199219 455.046875 484.769531 455.046875 C 374.34375 455.046875 283.535156 545.898438 283.535156 656.328125 " clip-rule="nonzero"/></clipPath><clipPath id="b7494cedc6"><path d="M 283 762 L 348.460938 762 L 348.460938 848 L 283 848 Z M 283 762 " clip-rule="nonzero"/></clipPath><clipPath id="ed9e5fdbf4"><path d="M 283.535156 815.492188 C 283.535156 833.308594 297.976562 847.796875 315.839844 847.796875 C 333.707031 847.796875 348.148438 833.355469 348.148438 815.492188 L 348.148438 762.683594 L 283.535156 762.683594 Z M 283.535156 815.492188 " clip-rule="nonzero"/></clipPath><clipPath id="9526dd9705"><path d="M 621.15625 762 L 687 762 L 687 848 L 621.15625 848 Z M 621.15625 762 " clip-rule="nonzero"/></clipPath><clipPath id="40ed0a7e07"><path d="M 621.488281 815.492188 C 621.488281 833.308594 635.929688 847.796875 653.792969 847.796875 C 671.660156 847.796875 686.097656 833.355469 686.097656 815.492188 L 686.097656 762.683594 L 621.488281 762.683594 Z M 621.488281 815.492188 " clip-rule="nonzero"/></clipPath><clipPath id="d4dff7124b"><path d="M 283 670 L 346 670 L 346 733 L 283 733 Z M 283 670 " clip-rule="nonzero"/></clipPath><clipPath id="4f1f6477d6"><path d="M 314.636719 670.304688 C 297.46875 670.304688 283.535156 684.234375 283.535156 701.40625 C 283.535156 718.578125 297.46875 732.460938 314.636719 732.460938 C 331.808594 732.460938 345.738281 718.53125 345.738281 701.40625 C 345.738281 684.28125 331.808594 670.304688 314.636719 670.304688 " clip-rule="nonzero"/></clipPath><clipPath id="f8a4e27579"><path d="M 623 670 L 687 670 L 687 733 L 623 733 Z M 623 670 " clip-rule="nonzero"/></clipPath><clipPath id="f407808d7b"><path d="M 654.996094 670.304688 C 637.828125 670.304688 623.894531 684.234375 623.894531 701.40625 C 623.894531 718.578125 637.828125 732.460938 654.996094 732.460938 C 672.167969 732.460938 686.097656 718.53125 686.097656 701.40625 C 686.097656 684.28125 672.167969 670.304688 654.996094 670.304688 " clip-rule="nonzero"/></clipPath></defs><g fill="#06a77d" fill-opacity="1"><g transform="translate(1050.714389, 784.633285)"><g><path d="M 306.859375 -262.796875 C 297.296875 -281.191406 284.019531 -295.078125 267.03125 -304.453125 C 250.050781 -313.835938 230.410156 -318.53125 208.109375 -318.53125 C 183.691406 -318.53125 161.925781 -313.046875 142.8125 -302.078125 C 123.695312 -291.109375 108.738281 -275.535156 97.9375 -255.359375 C 87.144531 -235.179688 81.75 -211.820312 81.75 -185.28125 C 81.75 -158.738281 87.144531 -135.289062 97.9375 -114.9375 C 108.738281 -94.582031 123.695312 -78.921875 142.8125 -67.953125 C 161.925781 -56.984375 183.691406 -51.5 208.109375 -51.5 C 241.023438 -51.5 267.742188 -60.695312 288.265625 -79.09375 C 308.796875 -97.5 321.363281 -122.453125 325.96875 -153.953125 L 187.40625 -153.953125 L 187.40625 -202.265625 L 390.734375 -202.265625 L 390.734375 -155.015625 C 386.835938 -126.347656 376.660156 -99.976562 360.203125 -75.90625 C 343.742188 -51.84375 322.332031 -32.644531 295.96875 -18.3125 C 269.601562 -3.976562 240.316406 3.1875 208.109375 3.1875 C 173.421875 3.1875 141.742188 -4.863281 113.078125 -20.96875 C 84.410156 -37.070312 61.671875 -59.457031 44.859375 -88.125 C 28.046875 -116.789062 19.640625 -149.175781 19.640625 -185.28125 C 19.640625 -221.382812 28.046875 -253.769531 44.859375 -282.4375 C 61.671875 -311.101562 84.5 -333.488281 113.34375 -349.59375 C 142.1875 -365.695312 173.773438 -373.75 208.109375 -373.75 C 247.390625 -373.75 282.335938 -364.101562 312.953125 -344.8125 C 343.566406 -325.519531 365.78125 -298.179688 379.59375 -262.796875 Z M 306.859375 -262.796875 "/></g></g></g><g fill="#06a77d" fill-opacity="1"><g transform="translate(1461.084477, 784.633285)"><g><path d="M 307.921875 -153.421875 C 307.921875 -142.453125 307.210938 -132.546875 305.796875 -123.703125 L 82.28125 -123.703125 C 84.050781 -100.335938 92.722656 -81.578125 108.296875 -67.421875 C 123.867188 -53.265625 142.984375 -46.1875 165.640625 -46.1875 C 198.203125 -46.1875 221.207031 -59.8125 234.65625 -87.0625 L 299.953125 -87.0625 C 291.109375 -60.164062 275.09375 -38.132812 251.90625 -20.96875 C 228.726562 -3.800781 199.972656 4.78125 165.640625 4.78125 C 137.679688 4.78125 112.640625 -1.5 90.515625 -14.0625 C 68.398438 -26.632812 51.054688 -44.332031 38.484375 -67.15625 C 25.921875 -89.988281 19.640625 -116.445312 19.640625 -146.53125 C 19.640625 -176.613281 25.742188 -203.066406 37.953125 -225.890625 C 50.171875 -248.722656 67.335938 -266.332031 89.453125 -278.71875 C 111.578125 -291.101562 136.972656 -297.296875 165.640625 -297.296875 C 193.242188 -297.296875 217.835938 -291.28125 239.421875 -279.25 C 261.015625 -267.21875 277.828125 -250.316406 289.859375 -228.546875 C 301.898438 -206.785156 307.921875 -181.742188 307.921875 -153.421875 Z M 244.734375 -172.546875 C 244.378906 -194.835938 236.414062 -212.707031 220.84375 -226.15625 C 205.269531 -239.601562 185.984375 -246.328125 162.984375 -246.328125 C 142.097656 -246.328125 124.222656 -239.691406 109.359375 -226.421875 C 94.492188 -213.148438 85.644531 -195.191406 82.8125 -172.546875 Z M 244.734375 -172.546875 "/></g></g></g><g fill="#06a77d" fill-opacity="1"><g transform="translate(1788.63732, 784.633285)"><g><path d="M 110.421875 -243.140625 L 110.421875 -81.21875 C 110.421875 -70.25 112.988281 -62.375 118.125 -57.59375 C 123.257812 -52.820312 132.019531 -50.4375 144.40625 -50.4375 L 181.5625 -50.4375 L 181.5625 0 L 133.78125 0 C 106.53125 0 85.648438 -6.367188 71.140625 -19.109375 C 56.628906 -31.847656 49.375 -52.550781 49.375 -81.21875 L 49.375 -243.140625 L 14.859375 -243.140625 L 14.859375 -292.515625 L 49.375 -292.515625 L 49.375 -365.25 L 110.421875 -365.25 L 110.421875 -292.515625 L 181.5625 -292.515625 L 181.5625 -243.140625 Z M 110.421875 -243.140625 "/></g></g></g><g fill="#06a77d" fill-opacity="1"><g transform="translate(1986.124616, 784.633285)"><g><path d="M 110.421875 -243.140625 L 110.421875 -81.21875 C 110.421875 -70.25 112.988281 -62.375 118.125 -57.59375 C 123.257812 -52.820312 132.019531 -50.4375 144.40625 -50.4375 L 181.5625 -50.4375 L 181.5625 0 L 133.78125 0 C 106.53125 0 85.648438 -6.367188 71.140625 -19.109375 C 56.628906 -31.847656 49.375 -52.550781 49.375 -81.21875 L 49.375 -243.140625 L 14.859375 -243.140625 L 14.859375 -292.515625 L 49.375 -292.515625 L 49.375 -365.25 L 110.421875 -365.25 L 110.421875 -292.515625 L 181.5625 -292.515625 L 181.5625 -243.140625 Z M 110.421875 -243.140625 "/></g></g></g><g fill="#06a77d" fill-opacity="1"><g transform="translate(2183.611911, 784.633285)"><g><path d="M 307.921875 -153.421875 C 307.921875 -142.453125 307.210938 -132.546875 305.796875 -123.703125 L 82.28125 -123.703125 C 84.050781 -100.335938 92.722656 -81.578125 108.296875 -67.421875 C 123.867188 -53.265625 142.984375 -46.1875 165.640625 -46.1875 C 198.203125 -46.1875 221.207031 -59.8125 234.65625 -87.0625 L 299.953125 -87.0625 C 291.109375 -60.164062 275.09375 -38.132812 251.90625 -20.96875 C 228.726562 -3.800781 199.972656 4.78125 165.640625 4.78125 C 137.679688 4.78125 112.640625 -1.5 90.515625 -14.0625 C 68.398438 -26.632812 51.054688 -44.332031 38.484375 -67.15625 C 25.921875 -89.988281 19.640625 -116.445312 19.640625 -146.53125 C 19.640625 -176.613281 25.742188 -203.066406 37.953125 -225.890625 C 50.171875 -248.722656 67.335938 -266.332031 89.453125 -278.71875 C 111.578125 -291.101562 136.972656 -297.296875 165.640625 -297.296875 C 193.242188 -297.296875 217.835938 -291.28125 239.421875 -279.25 C 261.015625 -267.21875 277.828125 -250.316406 289.859375 -228.546875 C 301.898438 -206.785156 307.921875 -181.742188 307.921875 -153.421875 Z M 244.734375 -172.546875 C 244.378906 -194.835938 236.414062 -212.707031 220.84375 -226.15625 C 205.269531 -239.601562 185.984375 -246.328125 162.984375 -246.328125 C 142.097656 -246.328125 124.222656 -239.691406 109.359375 -226.421875 C 94.492188 -213.148438 85.644531 -195.191406 82.8125 -172.546875 Z M 244.734375 -172.546875 "/></g></g></g><g fill="#06a77d" fill-opacity="1"><g transform="translate(2511.164793, 784.633285)"><g><path d="M 19.640625 -146.53125 C 19.640625 -176.613281 25.742188 -203.066406 37.953125 -225.890625 C 50.171875 -248.722656 67.070312 -266.332031 88.65625 -278.71875 C 110.25 -291.101562 135.023438 -297.296875 162.984375 -297.296875 C 198.378906 -297.296875 227.664062 -288.890625 250.84375 -272.078125 C 274.03125 -255.265625 289.691406 -231.285156 297.828125 -200.140625 L 232.53125 -200.140625 C 227.21875 -214.648438 218.722656 -225.972656 207.046875 -234.109375 C 195.367188 -242.253906 180.679688 -246.328125 162.984375 -246.328125 C 138.210938 -246.328125 118.476562 -237.566406 103.78125 -220.046875 C 89.09375 -202.535156 81.75 -178.03125 81.75 -146.53125 C 81.75 -115.03125 89.09375 -90.429688 103.78125 -72.734375 C 118.476562 -55.035156 138.210938 -46.1875 162.984375 -46.1875 C 198.023438 -46.1875 221.207031 -61.582031 232.53125 -92.375 L 297.828125 -92.375 C 289.335938 -62.644531 273.410156 -39.019531 250.046875 -21.5 C 226.691406 -3.976562 197.671875 4.78125 162.984375 4.78125 C 135.023438 4.78125 110.25 -1.5 88.65625 -14.0625 C 67.070312 -26.632812 50.171875 -44.332031 37.953125 -67.15625 C 25.742188 -89.988281 19.640625 -116.445312 19.640625 -146.53125 Z M 19.640625 -146.53125 "/></g></g></g><g fill="#06a77d" fill-opacity="1"><g transform="translate(2829.692683, 784.633285)"><g><path d="M 19.640625 -147.59375 C 19.640625 -176.96875 25.742188 -202.976562 37.953125 -225.625 C 50.171875 -248.28125 66.804688 -265.890625 87.859375 -278.453125 C 108.921875 -291.015625 132.191406 -297.296875 157.671875 -297.296875 C 180.679688 -297.296875 200.765625 -292.78125 217.921875 -283.75 C 235.085938 -274.726562 248.804688 -263.492188 259.078125 -250.046875 L 259.078125 -292.515625 L 320.125 -292.515625 L 320.125 0 L 259.078125 0 L 259.078125 -43.53125 C 248.804688 -29.726562 234.820312 -18.222656 217.125 -9.015625 C 199.4375 0.179688 179.265625 4.78125 156.609375 4.78125 C 131.484375 4.78125 108.476562 -1.675781 87.59375 -14.59375 C 66.71875 -27.519531 50.171875 -45.570312 37.953125 -68.75 C 25.742188 -91.9375 19.640625 -118.21875 19.640625 -147.59375 Z M 259.078125 -146.53125 C 259.078125 -166.695312 254.914062 -184.210938 246.59375 -199.078125 C 238.28125 -213.941406 227.398438 -225.265625 213.953125 -233.046875 C 200.503906 -240.835938 185.992188 -244.734375 170.421875 -244.734375 C 154.847656 -244.734375 140.332031 -240.925781 126.875 -233.3125 C 113.425781 -225.707031 102.539062 -214.5625 94.21875 -199.875 C 85.90625 -185.1875 81.75 -167.757812 81.75 -147.59375 C 81.75 -127.414062 85.90625 -109.71875 94.21875 -94.5 C 102.539062 -79.28125 113.515625 -67.6875 127.140625 -59.71875 C 140.773438 -51.757812 155.203125 -47.78125 170.421875 -47.78125 C 185.992188 -47.78125 200.503906 -51.671875 213.953125 -59.453125 C 227.398438 -67.242188 238.28125 -78.660156 246.59375 -93.703125 C 254.914062 -108.742188 259.078125 -126.351562 259.078125 -146.53125 Z M 259.078125 -146.53125 "/></g></g></g><g fill="#06a77d" fill-opacity="1"><g transform="translate(3189.629274, 784.633285)"><g><path d="M 100.34375 -250.046875 C 109.1875 -264.910156 120.953125 -276.5 135.640625 -284.8125 C 150.328125 -293.132812 167.757812 -297.296875 187.9375 -297.296875 L 187.9375 -234.65625 L 172.546875 -234.65625 C 148.828125 -234.65625 130.863281 -228.632812 118.65625 -216.59375 C 106.445312 -204.5625 100.34375 -183.679688 100.34375 -153.953125 L 100.34375 0 L 39.8125 0 L 39.8125 -292.515625 L 100.34375 -292.515625 Z M 100.34375 -250.046875 "/></g></g></g><g fill="#06a77d" fill-opacity="1"><g transform="translate(2305.854472, 966.520629)"><g><path d="M 69.3125 0 L 54.296875 0 L 48.859375 -16.65625 L 21.203125 -16.65625 L 15.765625 0 L 1.09375 0 L 26.03125 -72.234375 L 44.375 -72.234375 Z M 34.34375 -57.171875 L 25.046875 -28.65625 L 44.90625 -28.65625 L 35.578125 -57.171875 Z M 34.34375 -57.171875 "/></g></g></g><g fill="#06a77d" fill-opacity="1"><g transform="translate(2376.256194, 966.520629)"><g/></g></g><g fill="#06a77d" fill-opacity="1"><g transform="translate(2400.118672, 966.520629)"><g><path d="M 31.765625 1.03125 C 26.492188 1.03125 21.832031 -0.0625 17.78125 -2.25 C 13.726562 -4.4375 10.566406 -7.65625 8.296875 -11.90625 C 6.023438 -16.15625 4.890625 -21.257812 4.890625 -27.21875 C 4.890625 -33.21875 6.023438 -38.34375 8.296875 -42.59375 C 10.566406 -46.84375 13.710938 -50.0625 17.734375 -52.25 C 21.753906 -54.4375 26.347656 -55.53125 31.515625 -55.53125 C 43.015625 -55.53125 50.378906 -51.363281 53.609375 -43.03125 L 44.21875 -36.3125 L 43.1875 -36.3125 C 42.0625 -38.882812 40.601562 -40.796875 38.8125 -42.046875 C 37.019531 -43.296875 34.585938 -43.921875 31.515625 -43.921875 C 27.566406 -43.921875 24.488281 -42.550781 22.28125 -39.8125 C 20.070312 -37.082031 18.96875 -32.882812 18.96875 -27.21875 C 18.96875 -21.625 20.085938 -17.453125 22.328125 -14.703125 C 24.566406 -11.953125 27.710938 -10.578125 31.765625 -10.578125 C 34.734375 -10.578125 37.242188 -11.375 39.296875 -12.96875 C 41.359375 -14.5625 42.832031 -16.859375 43.71875 -19.859375 L 44.765625 -19.953125 L 54.5 -14.625 C 53.113281 -10.007812 50.550781 -6.242188 46.8125 -3.328125 C 43.070312 -0.421875 38.054688 1.03125 31.765625 1.03125 Z M 31.765625 1.03125 "/></g></g></g><g fill="#06a77d" fill-opacity="1"><g transform="translate(2456.291835, 966.520629)"><g><path d="M 21.25 1.03125 C 17.757812 1.03125 14.726562 0.390625 12.15625 -0.890625 C 9.582031 -2.171875 7.601562 -4.054688 6.21875 -6.546875 C 4.84375 -9.035156 4.15625 -12.023438 4.15625 -15.515625 C 4.15625 -18.742188 4.84375 -21.453125 6.21875 -23.640625 C 7.601562 -25.828125 9.742188 -27.617188 12.640625 -29.015625 C 15.546875 -30.421875 19.335938 -31.503906 24.015625 -32.265625 C 27.273438 -32.785156 29.753906 -33.359375 31.453125 -33.984375 C 33.148438 -34.617188 34.289062 -35.328125 34.875 -36.109375 C 35.46875 -36.898438 35.765625 -37.90625 35.765625 -39.125 C 35.765625 -40.875 35.15625 -42.207031 33.9375 -43.125 C 32.71875 -44.050781 30.691406 -44.515625 27.859375 -44.515625 C 24.835938 -44.515625 21.957031 -43.835938 19.21875 -42.484375 C 16.488281 -41.140625 14.117188 -39.363281 12.109375 -37.15625 L 11.109375 -37.15625 L 5.390625 -45.796875 C 8.148438 -48.859375 11.523438 -51.242188 15.515625 -52.953125 C 19.503906 -54.671875 23.851562 -55.53125 28.5625 -55.53125 C 35.769531 -55.53125 40.988281 -54 44.21875 -50.9375 C 47.445312 -47.875 49.0625 -43.523438 49.0625 -37.890625 L 49.0625 -14.234375 C 49.0625 -11.796875 50.132812 -10.578125 52.28125 -10.578125 C 53.101562 -10.578125 53.90625 -10.722656 54.6875 -11.015625 L 55.390625 -10.828125 L 56.375 -1.28125 C 55.613281 -0.789062 54.554688 -0.390625 53.203125 -0.078125 C 51.859375 0.234375 50.378906 0.390625 48.765625 0.390625 C 45.503906 0.390625 42.957031 -0.234375 41.125 -1.484375 C 39.300781 -2.734375 37.992188 -4.691406 37.203125 -7.359375 L 36.171875 -7.453125 C 33.503906 -1.796875 28.53125 1.03125 21.25 1.03125 Z M 25.59375 -9.1875 C 28.757812 -9.1875 31.285156 -10.25 33.171875 -12.375 C 35.066406 -14.5 36.015625 -17.457031 36.015625 -21.25 L 36.015625 -26.78125 L 35.078125 -26.984375 C 34.253906 -26.316406 33.175781 -25.757812 31.84375 -25.3125 C 30.507812 -24.875 28.59375 -24.441406 26.09375 -24.015625 C 23.125 -23.515625 20.988281 -22.664062 19.6875 -21.46875 C 18.382812 -20.269531 17.734375 -18.566406 17.734375 -16.359375 C 17.734375 -14.015625 18.425781 -12.234375 19.8125 -11.015625 C 21.195312 -9.796875 23.125 -9.1875 25.59375 -9.1875 Z M 25.59375 -9.1875 "/></g></g></g><g fill="#06a77d" fill-opacity="1"><g transform="translate(2513.749521, 966.520629)"><g><path d="M 7.859375 0 L 7.859375 -54.5 L 21.140625 -54.5 L 21.140625 -46.390625 L 22.1875 -46.203125 C 23.5 -49.222656 25.222656 -51.441406 27.359375 -52.859375 C 29.503906 -54.273438 32.109375 -54.984375 35.171875 -54.984375 C 38.273438 -54.984375 40.632812 -54.457031 42.25 -53.40625 L 39.921875 -41.59375 L 38.890625 -41.40625 C 37.992188 -41.769531 37.132812 -42.03125 36.3125 -42.1875 C 35.488281 -42.351562 34.484375 -42.4375 33.296875 -42.4375 C 29.472656 -42.4375 26.554688 -41.09375 24.546875 -38.40625 C 22.546875 -35.726562 21.546875 -31.425781 21.546875 -25.5 L 21.546875 0 Z M 7.859375 0 "/></g></g></g><g fill="#06a77d" fill-opacity="1"><g transform="translate(2556.484587, 966.520629)"><g/></g></g><g fill="#06a77d" fill-opacity="1"><g transform="translate(2580.347079, 966.520629)"><g><path d="M 9.53125 0 L 9.53125 -43.671875 L 1.828125 -43.671875 L 1.828125 -54.546875 L 9.53125 -54.546875 C 8.976562 -56.847656 8.703125 -59.003906 8.703125 -61.015625 C 8.703125 -64.472656 9.488281 -67.425781 11.0625 -69.875 C 12.644531 -72.332031 14.914062 -74.203125 17.875 -75.484375 C 20.84375 -76.773438 24.367188 -77.421875 28.453125 -77.421875 C 34.484375 -77.421875 38.984375 -76.382812 41.953125 -74.3125 L 38.734375 -64.234375 L 37.703125 -64.03125 C 35.660156 -65.476562 33.039062 -66.203125 29.84375 -66.203125 C 27.375 -66.203125 25.519531 -65.597656 24.28125 -64.390625 C 23.050781 -63.191406 22.4375 -61.554688 22.4375 -59.484375 C 22.4375 -58.597656 22.492188 -57.785156 22.609375 -57.046875 C 22.722656 -56.304688 22.925781 -55.472656 23.21875 -54.546875 L 38.78125 -54.546875 L 38.78125 -43.671875 L 23.21875 -43.671875 L 23.21875 0 Z M 9.53125 0 "/></g></g></g><g fill="#06a77d" fill-opacity="1"><g transform="translate(2619.673234, 966.520629)"><g><path d="M 31.671875 1.03125 C 26.335938 1.03125 21.648438 -0.0625 17.609375 -2.25 C 13.578125 -4.4375 10.445312 -7.644531 8.21875 -11.875 C 6 -16.113281 4.890625 -21.226562 4.890625 -27.21875 C 4.890625 -33.21875 6 -38.34375 8.21875 -42.59375 C 10.445312 -46.84375 13.578125 -50.0625 17.609375 -52.25 C 21.648438 -54.4375 26.335938 -55.53125 31.671875 -55.53125 C 37.003906 -55.53125 41.6875 -54.4375 45.71875 -52.25 C 49.757812 -50.0625 52.898438 -46.84375 55.140625 -42.59375 C 57.378906 -38.34375 58.5 -33.21875 58.5 -27.21875 C 58.5 -21.226562 57.378906 -16.113281 55.140625 -11.875 C 52.898438 -7.644531 49.757812 -4.4375 45.71875 -2.25 C 41.6875 -0.0625 37.003906 1.03125 31.671875 1.03125 Z M 31.671875 -10.578125 C 40.140625 -10.578125 44.375 -16.125 44.375 -27.21875 C 44.375 -32.988281 43.285156 -37.210938 41.109375 -39.890625 C 38.929688 -42.578125 35.785156 -43.921875 31.671875 -43.921875 C 23.203125 -43.921875 18.96875 -38.351562 18.96875 -27.21875 C 18.96875 -16.125 23.203125 -10.578125 31.671875 -10.578125 Z M 31.671875 -10.578125 "/></g></g></g><g fill="#06a77d" fill-opacity="1"><g transform="translate(2683.010081, 966.520629)"><g><path d="M 7.859375 0 L 7.859375 -54.5 L 21.140625 -54.5 L 21.140625 -46.390625 L 22.1875 -46.203125 C 23.5 -49.222656 25.222656 -51.441406 27.359375 -52.859375 C 29.503906 -54.273438 32.109375 -54.984375 35.171875 -54.984375 C 38.273438 -54.984375 40.632812 -54.457031 42.25 -53.40625 L 39.921875 -41.59375 L 38.890625 -41.40625 C 37.992188 -41.769531 37.132812 -42.03125 36.3125 -42.1875 C 35.488281 -42.351562 34.484375 -42.4375 33.296875 -42.4375 C 29.472656 -42.4375 26.554688 -41.09375 24.546875 -38.40625 C 22.546875 -35.726562 21.546875 -31.425781 21.546875 -25.5 L 21.546875 0 Z M 7.859375 0 "/></g></g></g><g fill="#06a77d" fill-opacity="1"><g transform="translate(2725.745175, 966.520629)"><g/></g></g><g fill="#06a77d" fill-opacity="1"><g transform="translate(2749.607666, 966.520629)"><g><path d="M 53.859375 -24.15625 L 18.828125 -24.15625 C 19.222656 -19.414062 20.570312 -15.96875 22.875 -13.8125 C 25.175781 -11.65625 28.320312 -10.578125 32.3125 -10.578125 C 35.4375 -10.578125 37.972656 -11.160156 39.921875 -12.328125 C 41.867188 -13.492188 43.429688 -15.265625 44.609375 -17.640625 L 45.65625 -17.640625 L 54.75 -11.8125 C 52.96875 -7.988281 50.28125 -4.890625 46.6875 -2.515625 C 43.101562 -0.148438 38.3125 1.03125 32.3125 1.03125 C 26.675781 1.03125 21.804688 -0.0351562 17.703125 -2.171875 C 13.609375 -4.316406 10.445312 -7.503906 8.21875 -11.734375 C 6 -15.960938 4.890625 -21.125 4.890625 -27.21875 C 4.890625 -33.414062 6.054688 -38.640625 8.390625 -42.890625 C 10.734375 -47.140625 13.894531 -50.304688 17.875 -52.390625 C 21.863281 -54.484375 26.347656 -55.53125 31.328125 -55.53125 C 39.035156 -55.53125 44.9375 -53.488281 49.03125 -49.40625 C 53.132812 -45.320312 55.1875 -39.328125 55.1875 -31.421875 C 55.1875 -28.554688 55.085938 -26.332031 54.890625 -24.75 Z M 42.09375 -33 C 41.957031 -37.15625 40.992188 -40.175781 39.203125 -42.0625 C 37.410156 -43.957031 34.785156 -44.90625 31.328125 -44.90625 C 24.410156 -44.90625 20.34375 -40.9375 19.125 -33 Z M 42.09375 -33 "/></g></g></g><g fill="#06a77d" fill-opacity="1"><g transform="translate(2808.843934, 966.520629)"><g><path d="M 37.5 0 L 21.203125 0 L 1.03125 -54.5 L 15.359375 -54.5 L 28.90625 -15.65625 L 30.046875 -15.65625 L 43.625 -54.5 L 57.609375 -54.5 Z M 37.5 0 "/></g></g></g><g fill="#06a77d" fill-opacity="1"><g transform="translate(2867.437956, 966.520629)"><g><path d="M 53.859375 -24.15625 L 18.828125 -24.15625 C 19.222656 -19.414062 20.570312 -15.96875 22.875 -13.8125 C 25.175781 -11.65625 28.320312 -10.578125 32.3125 -10.578125 C 35.4375 -10.578125 37.972656 -11.160156 39.921875 -12.328125 C 41.867188 -13.492188 43.429688 -15.265625 44.609375 -17.640625 L 45.65625 -17.640625 L 54.75 -11.8125 C 52.96875 -7.988281 50.28125 -4.890625 46.6875 -2.515625 C 43.101562 -0.148438 38.3125 1.03125 32.3125 1.03125 C 26.675781 1.03125 21.804688 -0.0351562 17.703125 -2.171875 C 13.609375 -4.316406 10.445312 -7.503906 8.21875 -11.734375 C 6 -15.960938 4.890625 -21.125 4.890625 -27.21875 C 4.890625 -33.414062 6.054688 -38.640625 8.390625 -42.890625 C 10.734375 -47.140625 13.894531 -50.304688 17.875 -52.390625 C 21.863281 -54.484375 26.347656 -55.53125 31.328125 -55.53125 C 39.035156 -55.53125 44.9375 -53.488281 49.03125 -49.40625 C 53.132812 -45.320312 55.1875 -39.328125 55.1875 -31.421875 C 55.1875 -28.554688 55.085938 -26.332031 54.890625 -24.75 Z M 42.09375 -33 C 41.957031 -37.15625 40.992188 -40.175781 39.203125 -42.0625 C 37.410156 -43.957031 34.785156 -44.90625 31.328125 -44.90625 C 24.410156 -44.90625 20.34375 -40.9375 19.125 -33 Z M 42.09375 -33 "/></g></g></g><g fill="#06a77d" fill-opacity="1"><g transform="translate(2926.674224, 966.520629)"><g><path d="M 7.859375 0 L 7.859375 -54.5 L 21.140625 -54.5 L 21.140625 -46.390625 L 22.1875 -46.203125 C 23.5 -49.222656 25.222656 -51.441406 27.359375 -52.859375 C 29.503906 -54.273438 32.109375 -54.984375 35.171875 -54.984375 C 38.273438 -54.984375 40.632812 -54.457031 42.25 -53.40625 L 39.921875 -41.59375 L 38.890625 -41.40625 C 37.992188 -41.769531 37.132812 -42.03125 36.3125 -42.1875 C 35.488281 -42.351562 34.484375 -42.4375 33.296875 -42.4375 C 29.472656 -42.4375 26.554688 -41.09375 24.546875 -38.40625 C 22.546875 -35.726562 21.546875 -31.425781 21.546875 -25.5 L 21.546875 0 Z M 7.859375 0 "/></g></g></g><g fill="#06a77d" fill-opacity="1"><g transform="translate(2969.409291, 966.520629)"><g><path d="M 12.0625 23.125 C 9.71875 23.125 7.597656 22.941406 5.703125 22.578125 C 3.804688 22.210938 2.269531 21.734375 1.09375 21.140625 L 3.265625 10.078125 L 4.15625 9.78125 C 4.976562 10.207031 6 10.550781 7.21875 10.8125 C 8.4375 11.082031 9.6875 11.21875 10.96875 11.21875 C 13.175781 11.21875 15.007812 10.925781 16.46875 10.34375 C 17.9375 9.769531 19.179688 8.816406 20.203125 7.484375 C 21.222656 6.148438 22.128906 4.296875 22.921875 1.921875 L 1.1875 -54.5 L 15.515625 -54.5 L 29.046875 -16.59375 L 30.234375 -16.59375 L 43.421875 -54.5 L 57.359375 -54.5 L 35.46875 3.40625 C 33.726562 8.082031 31.8125 11.84375 29.71875 14.6875 C 27.625 17.539062 25.148438 19.660156 22.296875 21.046875 C 19.453125 22.429688 16.039062 23.125 12.0625 23.125 Z M 12.0625 23.125 "/></g></g></g><g fill="#06a77d" fill-opacity="1"><g transform="translate(3027.904476, 966.520629)"><g/></g></g><g fill="#06a77d" fill-opacity="1"><g transform="translate(3051.766967, 966.520629)"><g><path d="M 7.859375 22.078125 L 7.859375 -54.5 L 21.546875 -54.5 L 21.546875 -47.375 L 22.578125 -47.1875 C 24.191406 -49.945312 26.347656 -52.023438 29.046875 -53.421875 C 31.753906 -54.828125 34.914062 -55.53125 38.53125 -55.53125 C 42.914062 -55.53125 46.742188 -54.492188 50.015625 -52.421875 C 53.296875 -50.347656 55.847656 -47.191406 57.671875 -42.953125 C 59.503906 -38.722656 60.421875 -33.476562 60.421875 -27.21875 C 60.421875 -21 59.457031 -15.78125 57.53125 -11.5625 C 55.601562 -7.34375 52.925781 -4.1875 49.5 -2.09375 C 46.082031 -0.0078125 42.132812 1.03125 37.65625 1.03125 C 34.257812 1.03125 31.328125 0.460938 28.859375 -0.671875 C 26.390625 -1.804688 24.296875 -3.578125 22.578125 -5.984375 L 21.546875 -5.78125 L 21.546875 22.078125 Z M 33.84375 -10.578125 C 37.925781 -10.578125 41.019531 -11.910156 43.125 -14.578125 C 45.238281 -17.242188 46.296875 -21.457031 46.296875 -27.21875 C 46.296875 -32.988281 45.238281 -37.210938 43.125 -39.890625 C 41.019531 -42.578125 37.925781 -43.921875 33.84375 -43.921875 C 30.019531 -43.921875 26.988281 -42.535156 24.75 -39.765625 C 22.507812 -37.003906 21.390625 -32.820312 21.390625 -27.21875 C 21.390625 -21.65625 22.507812 -17.488281 24.75 -14.71875 C 26.988281 -11.957031 30.019531 -10.578125 33.84375 -10.578125 Z M 33.84375 -10.578125 "/></g></g></g><g fill="#06a77d" fill-opacity="1"><g transform="translate(3117.030585, 966.520629)"><g><path d="M 53.859375 -24.15625 L 18.828125 -24.15625 C 19.222656 -19.414062 20.570312 -15.96875 22.875 -13.8125 C 25.175781 -11.65625 28.320312 -10.578125 32.3125 -10.578125 C 35.4375 -10.578125 37.972656 -11.160156 39.921875 -12.328125 C 41.867188 -13.492188 43.429688 -15.265625 44.609375 -17.640625 L 45.65625 -17.640625 L 54.75 -11.8125 C 52.96875 -7.988281 50.28125 -4.890625 46.6875 -2.515625 C 43.101562 -0.148438 38.3125 1.03125 32.3125 1.03125 C 26.675781 1.03125 21.804688 -0.0351562 17.703125 -2.171875 C 13.609375 -4.316406 10.445312 -7.503906 8.21875 -11.734375 C 6 -15.960938 4.890625 -21.125 4.890625 -27.21875 C 4.890625 -33.414062 6.054688 -38.640625 8.390625 -42.890625 C 10.734375 -47.140625 13.894531 -50.304688 17.875 -52.390625 C 21.863281 -54.484375 26.347656 -55.53125 31.328125 -55.53125 C 39.035156 -55.53125 44.9375 -53.488281 49.03125 -49.40625 C 53.132812 -45.320312 55.1875 -39.328125 55.1875 -31.421875 C 55.1875 -28.554688 55.085938 -26.332031 54.890625 -24.75 Z M 42.09375 -33 C 41.957031 -37.15625 40.992188 -40.175781 39.203125 -42.0625 C 37.410156 -43.957031 34.785156 -44.90625 31.328125 -44.90625 C 24.410156 -44.90625 20.34375 -40.9375 19.125 -33 Z M 42.09375 -33 "/></g></g></g><g fill="#06a77d" fill-opacity="1"><g transform="translate(3176.266853, 966.520629)"><g><path d="M 7.859375 0 L 7.859375 -54.5 L 21.140625 -54.5 L 21.140625 -46.390625 L 22.1875 -46.203125 C 23.5 -49.222656 25.222656 -51.441406 27.359375 -52.859375 C 29.503906 -54.273438 32.109375 -54.984375 35.171875 -54.984375 C 38.273438 -54.984375 40.632812 -54.457031 42.25 -53.40625 L 39.921875 -41.59375 L 38.890625 -41.40625 C 37.992188 -41.769531 37.132812 -42.03125 36.3125 -42.1875 C 35.488281 -42.351562 34.484375 -42.4375 33.296875 -42.4375 C 29.472656 -42.4375 26.554688 -41.09375 24.546875 -38.40625 C 22.546875 -35.726562 21.546875 -31.425781 21.546875 -25.5 L 21.546875 0 Z M 7.859375 0 "/></g></g></g><g fill="#06a77d" fill-opacity="1"><g transform="translate(3219.001973, 966.520629)"><g><path d="M 25.5 1.03125 C 21.769531 1.03125 18.359375 0.597656 15.265625 -0.265625 C 12.171875 -1.140625 9.523438 -2.34375 7.328125 -3.875 C 5.140625 -5.40625 3.519531 -7.160156 2.46875 -9.140625 L 10.078125 -17.34375 L 11.109375 -17.34375 C 12.921875 -14.90625 15.0625 -13.078125 17.53125 -11.859375 C 20.007812 -10.640625 22.695312 -10.03125 25.59375 -10.03125 C 28.257812 -10.03125 30.265625 -10.503906 31.609375 -11.453125 C 32.960938 -12.410156 33.640625 -13.78125 33.640625 -15.5625 C 33.640625 -16.945312 33.15625 -18.109375 32.1875 -19.046875 C 31.21875 -19.984375 29.644531 -20.71875 27.46875 -21.25 L 20.25 -22.96875 C 14.851562 -24.257812 10.910156 -26.226562 8.421875 -28.875 C 5.929688 -31.53125 4.6875 -34.898438 4.6875 -38.984375 C 4.6875 -42.378906 5.550781 -45.328125 7.28125 -47.828125 C 9.007812 -50.328125 11.445312 -52.234375 14.59375 -53.546875 C 17.738281 -54.867188 21.40625 -55.53125 25.59375 -55.53125 C 30.5 -55.53125 34.566406 -54.820312 37.796875 -53.40625 C 41.023438 -51.988281 43.546875 -50.097656 45.359375 -47.734375 L 38.046875 -39.828125 L 37.0625 -39.828125 C 35.539062 -41.535156 33.832031 -42.785156 31.9375 -43.578125 C 30.039062 -44.367188 27.925781 -44.765625 25.59375 -44.765625 C 20.1875 -44.765625 17.484375 -43.082031 17.484375 -39.71875 C 17.484375 -38.300781 17.984375 -37.148438 18.984375 -36.265625 C 19.992188 -35.378906 21.769531 -34.65625 24.3125 -34.09375 L 31.03125 -32.609375 C 36.5625 -31.421875 40.601562 -29.515625 43.15625 -26.890625 C 45.707031 -24.273438 46.984375 -20.765625 46.984375 -16.359375 C 46.984375 -12.898438 46.125 -9.851562 44.40625 -7.21875 C 42.695312 -4.582031 40.226562 -2.546875 37 -1.109375 C 33.78125 0.316406 29.945312 1.03125 25.5 1.03125 Z M 25.5 1.03125 "/></g></g></g><g fill="#06a77d" fill-opacity="1"><g transform="translate(3269.24661, 966.520629)"><g><path d="M 31.671875 1.03125 C 26.335938 1.03125 21.648438 -0.0625 17.609375 -2.25 C 13.578125 -4.4375 10.445312 -7.644531 8.21875 -11.875 C 6 -16.113281 4.890625 -21.226562 4.890625 -27.21875 C 4.890625 -33.21875 6 -38.34375 8.21875 -42.59375 C 10.445312 -46.84375 13.578125 -50.0625 17.609375 -52.25 C 21.648438 -54.4375 26.335938 -55.53125 31.671875 -55.53125 C 37.003906 -55.53125 41.6875 -54.4375 45.71875 -52.25 C 49.757812 -50.0625 52.898438 -46.84375 55.140625 -42.59375 C 57.378906 -38.34375 58.5 -33.21875 58.5 -27.21875 C 58.5 -21.226562 57.378906 -16.113281 55.140625 -11.875 C 52.898438 -7.644531 49.757812 -4.4375 45.71875 -2.25 C 41.6875 -0.0625 37.003906 1.03125 31.671875 1.03125 Z M 31.671875 -10.578125 C 40.140625 -10.578125 44.375 -16.125 44.375 -27.21875 C 44.375 -32.988281 43.285156 -37.210938 41.109375 -39.890625 C 38.929688 -42.578125 35.785156 -43.921875 31.671875 -43.921875 C 23.203125 -43.921875 18.96875 -38.351562 18.96875 -27.21875 C 18.96875 -16.125 23.203125 -10.578125 31.671875 -10.578125 Z M 31.671875 -10.578125 "/></g></g></g><g fill="#06a77d" fill-opacity="1"><g transform="translate(3332.58343, 966.520629)"><g><path d="M 7.859375 0 L 7.859375 -54.5 L 21 -54.5 L 21 -46.5 L 22.03125 -46.25 C 25.425781 -52.4375 30.925781 -55.53125 38.53125 -55.53125 C 44.820312 -55.53125 49.441406 -53.816406 52.390625 -50.390625 C 55.335938 -46.960938 56.8125 -41.972656 56.8125 -35.421875 L 56.8125 0 L 43.140625 0 L 43.140625 -33.75 C 43.140625 -37.375 42.410156 -39.984375 40.953125 -41.578125 C 39.503906 -43.171875 37.1875 -43.96875 34 -43.96875 C 30.070312 -43.96875 27.015625 -42.695312 24.828125 -40.15625 C 22.640625 -37.625 21.546875 -33.644531 21.546875 -28.21875 L 21.546875 0 Z M 7.859375 0 "/></g></g></g><g clip-path="url(#eee6d610ae)"><g clip-path="url(#033098056f)"><path fill="#06a77d" d="M 0.0117188 139.496094 L 969.605469 139.496094 L 969.605469 1109.085938 L 0.0117188 1109.085938 Z M 0.0117188 139.496094 " fill-opacity="1" fill-rule="nonzero"/></g></g><g clip-path="url(#2bd3fefc40)"><g clip-path="url(#015c990603)"><path fill="#ffffff" d="M 0.0117188 139.496094 L 969.605469 139.496094 L 969.605469 1109.085938 L 0.0117188 1109.085938 Z M 0.0117188 139.496094 " fill-opacity="1" fill-rule="nonzero"/></g></g><g clip-path="url(#44f42e7754)"><g clip-path="url(#1784dd4fea)"><path fill="#06a77d" d="M 0.0117188 139.496094 L 969.605469 139.496094 L 969.605469 1109.085938 L 0.0117188 1109.085938 Z M 0.0117188 139.496094 " fill-opacity="1" fill-rule="nonzero"/></g></g><g clip-path="url(#b7494cedc6)"><g clip-path="url(#ed9e5fdbf4)"><path fill="#ffffff" d="M 0.0117188 139.496094 L 969.605469 139.496094 L 969.605469 1109.085938 L 0.0117188 1109.085938 Z M 0.0117188 139.496094 " fill-opacity="1" fill-rule="nonzero"/></g></g><g clip-path="url(#9526dd9705)"><g clip-path="url(#40ed0a7e07)"><path fill="#ffffff" d="M 0.0117188 139.496094 L 969.605469 139.496094 L 969.605469 1109.085938 L 0.0117188 1109.085938 Z M 0.0117188 139.496094 " fill-opacity="1" fill-rule="nonzero"/></g></g><g clip-path="url(#d4dff7124b)"><g clip-path="url(#4f1f6477d6)"><path fill="#06a77d" d="M 0.0117188 139.496094 L 969.605469 139.496094 L 969.605469 1109.085938 L 0.0117188 1109.085938 Z M 0.0117188 139.496094 " fill-opacity="1" fill-rule="nonzero"/></g></g><g clip-path="url(#f8a4e27579)"><g clip-path="url(#f407808d7b)"><path fill="#06a77d" d="M 0.0117188 139.496094 L 969.605469 139.496094 L 969.605469 1109.085938 L 0.0117188 1109.085938 Z M 0.0117188 139.496094 " fill-opacity="1" fill-rule="nonzero"/></g></g></svg>