<svg xmlns="http://www.w3.org/2000/svg" viewBox="0 0 1920 1080">
  <!-- Full white background -->
  <rect width="1920" height="1080" fill="#ffffff"/>
  
  <!-- Top border segments with gaps -->
  <path d="M 0,40 L 80,42
           M 70,42 L 140,40
           
           M 200,40 L 280,42
           M 270,42 L 340,40
           
           M 400,40 L 480,42
           M 470,42 L 540,40
           
           M 600,40 L 680,42
           M 670,42 L 740,40
           
           M 800,40 L 880,42
           M 870,42 L 940,40
           
           M 1000,40 L 1080,42
           M 1070,42 L 1140,40
           
           M 1200,40 L 1280,42
           M 1270,42 L 1340,40
           
           M 1400,40 L 1480,42
           M 1470,42 L 1540,40
           
           M 1600,40 L 1680,42
           M 1670,42 L 1740,40
           
           M 1800,40 L 1880,42
           M 1870,42 L 1920,40"
    fill="none"
    stroke="#000000"
    stroke-width="0.5"
    stroke-linecap="round"
  />
  
  <!-- Bottom border segments with gaps -->
  <path d="M 0,1040 L 80,1042
           M 70,1042 L 140,1040
           
           M 200,1040 L 280,1042
           M 270,1042 L 340,1040
           
           M 400,1040 L 480,1042
           M 470,1042 L 540,1040
           
           M 600,1040 L 680,1042
           M 670,1042 L 740,1040
           
           M 800,1040 L 880,1042
           M 870,1042 L 940,1040
           
           M 1000,1040 L 1080,1042
           M 1070,1042 L 1140,1040
           
           M 1200,1040 L 1280,1042
           M 1270,1042 L 1340,1040
           
           M 1400,1040 L 1480,1042
           M 1470,1042 L 1540,1040
           
           M 1600,1040 L 1680,1042
           M 1670,1042 L 1740,1040
           
           M 1800,1040 L 1880,1042
           M 1870,1042 L 1920,1040"
    fill="none"
    stroke="#000000"
    stroke-width="0.5"
    stroke-linecap="round"
  />
</svg>